<svg width="161" height="45" viewBox="0 0 161 45" fill="none" xmlns="http://www.w3.org/2000/svg">
<path d="M24.128 44V1.12H12.928C10.56 5.472 6.912 6.432 2.24 6.432H0.64V14.56H12.096V44H24.128ZM49.0385 44.64C61.2625 44.64 70.5425 38.176 70.5425 22.24C70.5425 7.456 63.9505 0.48 47.3745 0.48C34.0625 0.48 27.2145 6.048 27.2145 14.752C27.2145 23.712 32.9745 27.616 43.5985 27.616C50.8305 27.616 54.8625 25.184 56.7825 22.368H57.6145V24.672C57.6145 32.16 55.1185 33.12 49.0385 33.12C44.1745 33.12 42.1265 32.864 42.1265 29.92V29.344H28.6865V29.92C28.6865 38.752 36.3665 44.64 49.0385 44.64ZM48.0785 19.424C41.2305 19.424 39.8865 18.464 39.8865 15.648C39.8865 13.152 41.2305 12.064 48.0785 12.064C55.5665 12.064 56.9105 13.152 56.9105 15.648C56.9105 18.464 55.7585 19.424 48.0785 19.424ZM94.272 44.64C107.008 44.64 115.456 40.864 115.456 32.16C115.456 25.12 110.976 22.624 105.536 21.664V20.832C111.104 19.808 114.176 16.928 114.176 11.808C114.176 4.704 107.392 0.48 94.208 0.48C81.216 0.48 74.368 4.704 74.368 11.808C74.368 16.928 77.504 19.808 82.88 20.832V21.664C78.016 22.624 72.96 25.12 72.96 32.16C72.96 40.864 81.344 44.64 94.272 44.64ZM94.208 17.952C87.808 17.952 86.4 17.056 86.4 15.008C86.4 12.704 87.808 12 94.208 12C100.864 12 102.208 12.704 102.208 15.008C102.208 17.056 100.864 17.952 94.208 17.952ZM94.208 33.12C86.848 33.12 85.184 32.096 85.184 29.536C85.184 26.912 86.656 26.08 94.208 26.08C101.76 26.08 103.232 26.912 103.232 29.536C103.232 32.096 101.568 33.12 94.208 33.12ZM139.798 44.64C154.774 44.64 160.918 38.304 160.918 28.768C160.918 19.872 156.246 14.56 145.174 14.56C136.342 14.56 132.246 18.144 131.286 20.704H130.646L131.798 11.936H158.358V1.12H121.11L118.549 26.656H130.774C131.606 24.416 134.422 23.968 139.99 23.968C146.966 23.968 148.118 25.248 148.118 28.896C148.118 32.416 146.966 33.696 139.99 33.696C132.182 33.696 130.774 32.8 130.774 30.304V29.92H118.358V30.304C118.358 40.416 125.59 44.64 139.798 44.64Z" fill="#161616"/>
<path d="M0 24.8H162.837V28H0V24.8Z" fill="#161616"/>
</svg>
