<svg width="31" height="28" viewBox="0 0 31 28" fill="none" xmlns="http://www.w3.org/2000/svg">
<path d="M11.3 23C10.6667 23 10.125 22.7707 9.675 22.312C9.225 21.854 9 21.3083 9 20.675V11.4L7.175 7H5V5H8.525L10.175 9H24.95C25.3333 9 25.625 9.15833 25.825 9.475C26.025 9.79167 26.0333 10.1167 25.85 10.45L23 16.025C23.85 16.1583 24.5627 16.55 25.138 17.2C25.7127 17.85 26 18.6167 26 19.5C26 20.4667 25.6627 21.2917 24.988 21.975C24.3127 22.6583 23.4917 23 22.525 23C21.5417 23 20.7127 22.6583 20.038 21.975C19.3627 21.2917 19.025 20.4667 19.025 19.5C19.025 19.1667 19.0667 18.8583 19.15 18.575C19.2333 18.2917 19.35 18.0167 19.5 17.75L16.225 17.45L13.225 21.95C13.0083 22.2833 12.729 22.5417 12.387 22.725C12.0457 22.9083 11.6833 23 11.3 23ZM20.85 15.875L23.325 11L11 11.025L12.25 14C12.3833 14.3333 12.596 14.6123 12.888 14.837C13.1793 15.0623 13.5167 15.1917 13.9 15.225L20.85 15.875ZM11.325 20.975C11.3583 20.975 11.4333 20.9333 11.55 20.85L13.975 17.25C13.1583 17.1667 12.5167 16.9707 12.05 16.662C11.5833 16.354 11.2333 16.0333 11 15.7V20.7C11 20.7833 11.0333 20.85 11.1 20.9C11.1667 20.95 11.2417 20.975 11.325 20.975V20.975ZM22.5 21C22.9333 21 23.2917 20.854 23.575 20.562C23.8583 20.2707 24 19.9167 24 19.5C24 19.0667 23.8583 18.7083 23.575 18.425C23.2917 18.1417 22.9333 18 22.5 18C22.0833 18 21.7293 18.1417 21.438 18.425C21.146 18.7083 21 19.0667 21 19.5C21 19.9167 21.146 20.2707 21.438 20.562C21.7293 20.854 22.0833 21 22.5 21ZM20.85 15.875L13.9 15.225L20.85 15.875Z" fill="#333333"/>
<circle cx="25.5" cy="4.5" r="2.5" fill="#E31616"/>
</svg>
