<svg width="107" height="23" viewBox="0 0 107 23" fill="none" xmlns="http://www.w3.org/2000/svg">
<path d="M12.48 22.32C19.68 22.32 24 18.896 24 13.168V12.624H17.28V13.168C17.28 15.6 16.128 16.56 12.576 16.56C8.224 16.56 7.04 15.536 7.04 11.28C7.04 7.024 8.224 6 12.576 6C16.128 6 17.28 6.96 17.28 9.392V9.936H24V9.392C24 3.664 19.68 0.24 12.48 0.24C5.024 0.24 0.64 4.592 0.64 11.28C0.64 17.968 5.024 22.32 12.48 22.32ZM31.601 22V0.559999H25.585V22H31.601ZM39.5385 22V14.704H42.0025C44.3385 14.704 44.9785 15.152 45.7465 16.752L48.3065 22H55.2505L52.5945 16.624C51.7945 14.992 51.0905 13.936 48.8825 13.36V13.04C52.9785 12.528 54.6745 10.512 54.6745 7.12C54.6745 2.928 51.6985 0.559999 46.0345 0.559999H33.5225V22H39.5385ZM39.5385 5.968H45.9705C47.7305 5.968 48.3705 6.384 48.3705 8.08C48.3705 9.904 47.7305 10.224 45.9705 10.224H39.5385V5.968ZM67.73 22.32C74.93 22.32 79.25 18.896 79.25 13.168V12.624H72.53V13.168C72.53 15.6 71.378 16.56 67.826 16.56C63.474 16.56 62.29 15.536 62.29 11.28C62.29 7.024 63.474 6 67.826 6C71.378 6 72.53 6.96 72.53 9.392V9.936H79.25V9.392C79.25 3.664 74.93 0.24 67.73 0.24C60.274 0.24 55.89 4.592 55.89 11.28C55.89 17.968 60.274 22.32 67.73 22.32ZM86.307 22L87.971 18.032H98.147L99.779 22H106.691L97.411 0.559999H88.803L79.555 22H86.307ZM91.491 9.616L92.867 6H93.283L94.691 9.616L95.939 12.624H90.243L91.491 9.616Z" fill="#333333"/>
</svg>
