<svg width="14" height="7" viewBox="0 0 14 7" fill="none" xmlns="http://www.w3.org/2000/svg">
<path d="M13.0283 0.156939L6.99938 5.73587L0.970513 0.156939C0.862797 0.057061 0.718197 0.00114502 0.567624 0.00114502C0.41705 0.00114502 0.27245 0.057061 0.164734 0.156939C0.112578 0.205451 0.0711434 0.263353 0.0428567 0.327257C0.01457 0.391161 0 0.45978 0 0.529097C0 0.598413 0.01457 0.667032 0.0428567 0.730936C0.0711434 0.794839 0.112578 0.852743 0.164734 0.901254L6.5784 6.83745C6.69103 6.94167 6.8421 7 6.99938 7C7.15667 7 7.30773 6.94167 7.42037 6.83745L13.834 0.902399C13.8866 0.853852 13.9283 0.795806 13.9568 0.731691C13.9853 0.667575 14 0.598689 14 0.529097C14 0.459504 13.9853 0.390617 13.9568 0.326502C13.9283 0.262386 13.8866 0.204342 13.834 0.155794C13.7263 0.0559155 13.5817 0 13.4311 0C13.2806 0 13.136 0.0559155 13.0283 0.155794V0.156939Z" fill="black"/>
</svg>
