<svg width="15" height="26" viewBox="0 0 15 26" fill="none" xmlns="http://www.w3.org/2000/svg">
<path d="M14.004 11.9175L1.83239 0.30184C1.62931 0.107929 1.35949 -0.000244141 1.0789 -0.000244141C0.798317 -0.000244141 0.5285 0.107929 0.325411 0.30184L0.312305 0.314965C0.21351 0.408969 0.134842 0.52212 0.081085 0.647536C0.0273276 0.772952 -0.000394403 0.908011 -0.000394403 1.0445C-0.000394403 1.18098 0.0273276 1.31604 0.081085 1.44146C0.134842 1.56687 0.21351 1.68002 0.312305 1.77403L11.7741 12.7115L0.312305 23.6447C0.21351 23.7387 0.134842 23.8518 0.081085 23.9772C0.0273276 24.1026 -0.000394403 24.2377 -0.000394403 24.3742C-0.000394403 24.5107 0.0273276 24.6457 0.081085 24.7711C0.134842 24.8966 0.21351 25.0097 0.312305 25.1037L0.325411 25.1168C0.5285 25.3108 0.798317 25.4189 1.0789 25.4189C1.35949 25.4189 1.62931 25.3108 1.83239 25.1168L14.004 13.5012C14.1111 13.3991 14.1963 13.2762 14.2545 13.1401C14.3127 13.004 14.3428 12.8574 14.3428 12.7093C14.3428 12.5613 14.3127 12.4147 14.2545 12.2786C14.1963 12.1425 14.1111 12.0196 14.004 11.9175Z" fill="white"/>
</svg>
