<svg width="10" height="10" viewBox="0 0 10 10" fill="none" xmlns="http://www.w3.org/2000/svg">
<path d="M5 0.5C4.10999 0.5 3.23996 0.763921 2.49994 1.25839C1.75991 1.75285 1.18314 2.45566 0.842544 3.27792C0.50195 4.10019 0.412835 5.00499 0.586468 5.87791C0.760102 6.75082 1.18869 7.55264 1.81802 8.18198C2.44736 8.81132 3.24918 9.2399 4.1221 9.41353C4.99501 9.58717 5.89981 9.49805 6.72208 9.15746C7.54434 8.81686 8.24715 8.24009 8.74161 7.50007C9.23608 6.76005 9.5 5.89002 9.5 5C9.5 3.80653 9.0259 2.66193 8.18198 1.81802C7.33807 0.974106 6.19348 0.5 5 0.5Z" fill="#28A814"/>
</svg>
