<svg width="17" height="17" viewBox="0 0 17 17" fill="none" xmlns="http://www.w3.org/2000/svg">
<path fill-rule="evenodd" clip-rule="evenodd" d="M7.43687 1.67726e-08C6.25089 0.000101055 5.08212 0.283819 4.02809 0.827482C2.97406 1.37115 2.06532 2.15899 1.3777 3.12528C0.690074 4.09158 0.243501 5.2083 0.0752371 6.38229C-0.0930268 7.55627 0.021898 8.75347 0.410423 9.87401C0.798949 10.9945 1.44981 12.0059 2.3087 12.8238C3.16759 13.6416 4.20961 14.2422 5.34782 14.5754C6.48602 14.9086 7.68742 14.9648 8.85176 14.7393C10.0161 14.5138 11.1096 14.0131 12.0411 13.279L15.2366 16.4745C15.4016 16.6339 15.6227 16.7221 15.8521 16.7201C16.0815 16.7181 16.301 16.6261 16.4632 16.4638C16.6254 16.3016 16.7175 16.0821 16.7195 15.8527C16.7215 15.6233 16.6333 15.4023 16.4739 15.2373L13.2784 12.0418C14.1429 10.945 14.6811 9.6271 14.8316 8.23876C14.982 6.85042 14.7386 5.44777 14.1291 4.19133C13.5196 2.9349 12.5686 1.87544 11.3851 1.1342C10.2016 0.392968 8.83334 -9.37504e-05 7.43687 1.67726e-08V1.67726e-08ZM1.74937 7.4375C1.74937 5.92908 2.34858 4.48244 3.4152 3.41583C4.48181 2.34922 5.92845 1.75 7.43687 1.75C8.94529 1.75 10.3919 2.34922 11.4585 3.41583C12.5252 4.48244 13.1244 5.92908 13.1244 7.4375C13.1244 8.94592 12.5252 10.3926 11.4585 11.4592C10.3919 12.5258 8.94529 13.125 7.43687 13.125C5.92845 13.125 4.48181 12.5258 3.4152 11.4592C2.34858 10.3926 1.74937 8.94592 1.74937 7.4375V7.4375Z" fill="#333333"/>
</svg>
