<svg width="28" height="35" viewBox="0 0 28 35" fill="none" xmlns="http://www.w3.org/2000/svg">
<path d="M27.4513 16.8003L14.8988 0.807798C14.792 0.671266 14.6556 0.560847 14.4999 0.484909C14.3442 0.408971 14.1733 0.369507 14.0001 0.369507C13.8269 0.369507 13.656 0.408971 13.5003 0.484909C13.3446 0.560847 13.2082 0.671266 13.1015 0.807798L0.548948 16.8003C0.389157 16.9984 0.302002 17.2453 0.302002 17.4999C0.302002 17.7546 0.389157 18.0015 0.548948 18.1996L13.1015 34.1921C13.2082 34.3286 13.3446 34.439 13.5003 34.515C13.656 34.5909 13.8269 34.6304 14.0001 34.6304C14.1733 34.6304 14.3442 34.5909 14.4999 34.515C14.6556 34.439 14.792 34.3286 14.8988 34.1921L27.4513 18.1996C27.6111 18.0015 27.6982 17.7546 27.6982 17.4999C27.6982 17.2453 27.6111 16.9984 27.4513 16.8003ZM15.1413 21.4409V4.80592L24.7553 17.0573L15.1413 21.4409ZM12.859 21.4409L3.24489 17.0573L12.859 4.80592V21.4409ZM12.859 23.954V30.194L5.24188 20.4843L12.859 23.954Z" fill="#333333"/>
</svg>
