<svg width="26" height="15" viewBox="0 0 26 15" fill="none" xmlns="http://www.w3.org/2000/svg">
<path d="M11.9177 14.0044L0.302084 1.83276C0.108173 1.62967 0 1.35985 0 1.07927C0 0.798683 0.108173 0.528867 0.302084 0.325777L0.315209 0.312672C0.409213 0.213877 0.522364 0.135208 0.64778 0.0814514C0.773196 0.0276937 0.908255 -2.86102e-05 1.04474 -2.86102e-05C1.18122 -2.86102e-05 1.31628 0.0276937 1.4417 0.0814514C1.56712 0.135208 1.68027 0.213877 1.77427 0.312672L12.7118 11.7745L23.6449 0.312672C23.7389 0.213877 23.8521 0.135208 23.9775 0.0814514C24.1029 0.0276937 24.2379 -2.86102e-05 24.3744 -2.86102e-05C24.5109 -2.86102e-05 24.646 0.0276937 24.7714 0.0814514C24.8968 0.135208 25.01 0.213877 25.104 0.312672L25.1171 0.325777C25.311 0.528867 25.4192 0.798683 25.4192 1.07927C25.4192 1.35985 25.311 1.62967 25.1171 1.83276L13.5015 14.0044C13.3993 14.1114 13.2765 14.1967 13.1403 14.2549C13.0042 14.3131 12.8577 14.3431 12.7096 14.3431C12.5615 14.3431 12.415 14.3131 12.2788 14.2549C12.1427 14.1967 12.0199 14.1114 11.9177 14.0044Z" fill="#333333"/>
</svg>
