<svg width="183" height="34" viewBox="0 0 183 34" fill="none" xmlns="http://www.w3.org/2000/svg">
<path d="M8.824 33L11.896 25.896H27.976L31 33H39.256L25.096 0.839999H14.824L0.76 33H8.824ZM17.704 12.408L19.672 7.416H20.2L22.168 12.408L25.192 19.416H14.68L17.704 12.408ZM48.1356 33V21.336H52.8876C56.6316 21.336 57.8316 22.152 59.1276 24.648L63.5436 33H71.8956L67.2396 24.36C66.0396 22.104 64.9356 20.568 62.0556 19.8V19.416C68.1036 18.84 71.1276 15.72 71.1276 10.488C71.1276 4.344 66.6156 0.839999 58.6956 0.839999H40.9356V33H48.1356ZM48.1356 7.32H58.6476C62.0556 7.32 63.5916 8.424 63.5916 11.592C63.5916 14.952 62.0556 15.912 58.6476 15.912H48.1356V7.32ZM92.074 33V7.32H104.026V0.839999H72.922V7.32H84.874V33H92.074ZM121.2 33.48C131.424 33.48 135.504 28.776 135.504 23.544C135.504 19.128 132.911 15.624 125.712 14.472L116.688 13.032C114 12.552 112.944 11.88 112.944 10.008C112.944 7.944 114.528 6.936 119.712 6.936C126.096 6.936 127.68 8.232 127.68 11.304V11.976H134.928V11.688C134.928 4.92 130.32 0.36 120.432 0.36C109.632 0.36 105.696 5.448 105.696 10.296C105.696 15.528 109.104 18.408 114.864 19.32L123.888 20.616C127.2 21.192 128.304 21.912 128.304 23.88C128.304 26.04 126.96 26.904 121.2 26.904C114.672 26.904 113.184 25.704 113.184 22.728V21.864H105.984V22.152C105.984 29.64 111.456 33.48 121.2 33.48ZM157.492 33V22.392L171.988 0.839999H163.06L156.916 10.248L154.228 14.568H153.7L151.012 10.248L144.868 0.839999H135.988L150.244 22.344V33H157.492ZM182.142 33V24.6H172.878V33H182.142Z" fill="#292929"/>
</svg>
